<svg width="100" height="100" viewBox="0 0 100 100" xmlns="http://www.w3.org/2000/svg">
  <defs>
    <linearGradient id="suppGrad" x1="0%" y1="0%" x2="100%" y2="100%">
      <stop offset="0%" style="stop-color:#ea4335;stop-opacity:1" />
      <stop offset="100%" style="stop-color:#c5221f;stop-opacity:1" />
    </linearGradient>
  </defs>
  <!-- 耳机 -->
  <path d="M 50 20 Q 25 20, 25 45 L 25 55 L 30 55 Q 35 55, 35 50 L 35 45 Q 35 30, 50 30 Q 65 30, 65 45 L 65 50 Q 65 55, 70 55 L 75 55 L 75 45 Q 75 20, 50 20" fill="url(#suppGrad)"/>
  <rect x="22" y="50" width="13" height="18" rx="4" fill="url(#suppGrad)"/>
  <rect x="65" y="50" width="13" height="18" rx="4" fill="url(#suppGrad)"/>
  <!-- 麦克风 -->
  <path d="M 70 68 Q 75 75, 72 80" stroke="url(#suppGrad)" stroke-width="3" fill="none" stroke-linecap="round"/>
</svg>
